<svg viewBox="0 0 222 152" xmlns="http://www.w3.org/2000/svg"><path d="M40 52 C90 40 130 44 158 56 C164 50 170 54 172 62 L172 70 C150 60 96 58 46 70 Z" fill="#f3d9c7" stroke="#e7b49a" stroke-width="1.4"/><path d="M45 62 C36 86 38 110 50 130" fill="none" stroke="#9aa6b4" stroke-width="2.4" stroke-linecap="round"/><rect x="159" y="66" width="7.5" height="13" rx="2" fill="#ffffff" stroke="#5b6573" stroke-width="1.2"/><path d="M52.0,114.0 C56.3,108.8 69.3,103.0 78.0,98.0 C86.7,93.0 96.0,86.0 104.0,84.0 C112.0,82.0 120.3,84.3 126.0,86.0 C131.7,87.7 134.0,87.3 138.0,94.0 C142.0,100.7 154.3,119.7 150.0,126.0 C145.7,132.3 124.7,131.0 112.0,132.0 C99.3,133.0 84.0,132.5 74.0,132.0 C64.0,131.5 55.7,132.0 52.0,129.0 C48.3,126.0 47.7,119.2 52.0,114.0 Z" fill="#ff6b5c" stroke="#e1503f" stroke-width="1.6" stroke-linejoin="round"/><rect x="159" y="95" width="7.5" height="13" rx="2" fill="#ffffff" stroke="#5b6573" stroke-width="1.2"/><path d="M50 132 C92 142 132 136 158 114" fill="none" stroke="#9aa6b4" stroke-width="2.2" stroke-linecap="round" opacity="0.6"/><circle cx="184" cy="87" r="9.5" fill="none" stroke="#ff7a6c" stroke-width="7"/><path d="M198 86 L210 86" stroke="#ff6b5c" stroke-width="2.6" stroke-linecap="round"/><path d="M205 81 L210 86 L205 91" fill="none" stroke="#ff6b5c" stroke-width="2.6" stroke-linejoin="round" stroke-linecap="round"/><circle cx="30" cy="126" r="5.5" fill="#ff6b5c"/><circle cx="30" cy="126" r="9.5" fill="none" stroke="#ff6b5c" stroke-width="1.8" opacity="0.5"/><text x="14" y="30" font-family="Georgia, 'Times New Roman', serif" font-size="21" font-weight="700" fill="#5b6573">/ɹ/</text></svg>