<svg viewBox="0 0 222 152" xmlns="http://www.w3.org/2000/svg"><path d="M40 52 C90 40 130 44 158 56 C164 50 170 54 172 62 L172 70 C150 60 96 58 46 70 Z" fill="#f3d9c7" stroke="#e7b49a" stroke-width="1.4"/><path d="M45 62 C36 86 38 110 50 130" fill="none" stroke="#9aa6b4" stroke-width="2.4" stroke-linecap="round"/><rect x="159" y="66" width="7.5" height="13" rx="2" fill="#ffffff" stroke="#5b6573" stroke-width="1.2"/><path d="M52.0,114.0 C57.0,109.2 72.3,104.3 82.0,100.0 C91.7,95.7 101.7,91.7 110.0,88.0 C118.3,84.3 125.3,75.3 132.0,78.0 C138.7,80.7 147.0,96.0 150.0,104.0 C153.0,112.0 156.3,121.3 150.0,126.0 C143.7,130.7 124.7,131.0 112.0,132.0 C99.3,133.0 84.0,132.5 74.0,132.0 C64.0,131.5 55.7,132.0 52.0,129.0 C48.3,126.0 47.0,118.8 52.0,114.0 Z" fill="#ff6b5c" stroke="#e1503f" stroke-width="1.6" stroke-linejoin="round"/><rect x="159" y="95" width="7.5" height="13" rx="2" fill="#ffffff" stroke="#5b6573" stroke-width="1.2"/><path d="M50 132 C92 142 132 136 158 114" fill="none" stroke="#9aa6b4" stroke-width="2.2" stroke-linecap="round" opacity="0.6"/><circle cx="184" cy="87" r="9.5" fill="none" stroke="#ff7a6c" stroke-width="7"/><path d="M198 86 L210 86" stroke="#ff6b5c" stroke-width="2.6" stroke-linecap="round"/><path d="M205 81 L210 86 L205 91" fill="none" stroke="#ff6b5c" stroke-width="2.6" stroke-linejoin="round" stroke-linecap="round"/><circle cx="30" cy="126" r="5.5" fill="none" stroke="#c4ccd6" stroke-width="2"/><text x="14" y="30" font-family="Georgia, 'Times New Roman', serif" font-size="21" font-weight="700" fill="#5b6573">/ʃ/</text></svg>