<svg viewBox="0 0 222 152" xmlns="http://www.w3.org/2000/svg"><path d="M40 52 C90 40 130 44 158 56 C164 50 170 54 172 62 L172 70 C150 60 96 58 46 70 Z" fill="#f3d9c7" stroke="#e7b49a" stroke-width="1.4"/><path d="M45 62 C36 86 38 110 50 130" fill="none" stroke="#9aa6b4" stroke-width="2.4" stroke-linecap="round"/><rect x="159" y="66" width="7.5" height="13" rx="2" fill="#ffffff" stroke="#5b6573" stroke-width="1.2"/><path d="M52.0,116.0 C57.0,111.8 72.0,106.3 82.0,104.0 C92.0,101.7 102.3,103.0 112.0,102.0 C121.7,101.0 130.0,100.3 140.0,98.0 C150.0,95.7 170.3,83.3 172.0,88.0 C173.7,92.7 160.0,118.7 150.0,126.0 C140.0,133.3 124.7,131.0 112.0,132.0 C99.3,133.0 84.0,132.5 74.0,132.0 C64.0,131.5 55.7,131.7 52.0,129.0 C48.3,126.3 47.0,120.2 52.0,116.0 Z" fill="#ff6b5c" stroke="#e1503f" stroke-width="1.6" stroke-linejoin="round"/><rect x="159" y="95" width="7.5" height="13" rx="2" fill="#ffffff" stroke="#5b6573" stroke-width="1.2"/><path d="M50 132 C92 142 132 136 158 114" fill="none" stroke="#9aa6b4" stroke-width="2.2" stroke-linecap="round" opacity="0.6"/><path d="M176 70 C184 69 190 70 192 72" fill="none" stroke="#ff7a6c" stroke-width="7" stroke-linecap="round"/><path d="M176 104 C184 105 190 104 192 102" fill="none" stroke="#ff7a6c" stroke-width="7" stroke-linecap="round"/><path d="M198 86 L210 86" stroke="#ff6b5c" stroke-width="2.6" stroke-linecap="round"/><path d="M205 81 L210 86 L205 91" fill="none" stroke="#ff6b5c" stroke-width="2.6" stroke-linejoin="round" stroke-linecap="round"/><circle cx="30" cy="126" r="5.5" fill="none" stroke="#c4ccd6" stroke-width="2"/><text x="14" y="30" font-family="Georgia, 'Times New Roman', serif" font-size="21" font-weight="700" fill="#5b6573">/θ/</text></svg>