<svg id="グループ_6182" data-name="グループ 6182" xmlns="http://www.w3.org/2000/svg" xmlns:xlink="http://www.w3.org/1999/xlink" width="84.237" height="73.247" viewBox="0 0 84.237 73.247">
  <defs>
    <clipPath id="clip-path">
      <rect id="長方形_5584" data-name="長方形 5584" width="84.237" height="73.247" fill="none"/>
    </clipPath>
  </defs>
  <g id="グループ_6181" data-name="グループ 6181" clip-path="url(#clip-path)">
    <path id="パス_21707" data-name="パス 21707" d="M397.649,8.193c-.82,1.308-1.562,2.674-2.484,3.9a11.7,11.7,0,0,1-2.443,2.43,2.518,2.518,0,0,0-.948,1.833,21.594,21.594,0,0,1-5.767,11.065,17.464,17.464,0,0,1-5.381,3.865,6.371,6.371,0,0,1-1.736.537,2.15,2.15,0,0,1-2.46-1.283,2.281,2.281,0,0,1,.3-2.78A4.814,4.814,0,0,1,378.2,26.71c4.651-2.24,7.145-6.145,8.525-10.929a2.6,2.6,0,0,0-.473-2.466,55.475,55.475,0,0,1-3.048-4.768c-.467-.8-.99-1.71-.207-2.609.533-.612,1.58-.42,2.718.414.392.287.768.6,1.388,1.08.1-.82.174-1.4.245-1.98.141-1.157.216-2.326.44-3.467.232-1.182,1.041-2,1.751-1.985s1.214.862,1.329,2.236c.037.436.069.872.129,1.621.383-.48.6-.738.8-1.009a10,10,0,0,1,1.3-1.7,1.752,1.752,0,0,1,1.46-.4,1.812,1.812,0,0,1,.714,1.326,10.485,10.485,0,0,1-.158,2.148c-.033.323-.1.643-.147.97l2.681-1Z" transform="translate(-313.413 0)" fill="#0459b7"/>
    <path id="パス_21708" data-name="パス 21708" d="M51.7,69.585a41,41,0,0,1-16.474-1,6.337,6.337,0,0,0,.1,1.472c.564,1.62,1.21,3.211,1.78,4.83a11.175,11.175,0,0,1,.752,2.692,2.063,2.063,0,0,1-1.921,2.48A44.764,44.764,0,0,1,23.5,80.017a2.212,2.212,0,0,1-2.141-1.8,2.826,2.826,0,0,1,1.254-2.742,7.578,7.578,0,0,1,5.243-1.186c1.04.067,2.069.292,3.286.472-.09-.443-.154-.785-.231-1.124-.441-1.941-.983-3.866-1.288-5.828a2.187,2.187,0,0,0-1.484-1.78,29.234,29.234,0,0,1-10.569-8.454,26.1,26.1,0,0,1-5.014-10.587c-.093-.426-.213-.846-.363-1.436a8.46,8.46,0,0,0-1.008.668,11.463,11.463,0,0,0-3.656,7.964,1.962,1.962,0,0,0,.831,1.845,7.328,7.328,0,0,1,1.846,2.084,2.781,2.781,0,0,1-.363,3.527,2.248,2.248,0,0,0-.488,1.285c-.14,1.545-.489,2.131-1.935,2.517a7.671,7.671,0,0,1-5.66-.572A2.9,2.9,0,0,1,.1,62.527c-.256-2.326-.125-4.577,1.625-6.38a2.577,2.577,0,0,0,.6-1.652,40.967,40.967,0,0,1,.88-5.067,14.748,14.748,0,0,1,7.288-9.121,2.645,2.645,0,0,0,1.47-2.489,30.43,30.43,0,0,1,4.365-13.84A29.263,29.263,0,0,1,38.067,9.092a31.454,31.454,0,0,1,21.482,4.036,19.86,19.86,0,0,1,3.395,2.657,8,8,0,0,1,2.333,4.331,7.058,7.058,0,0,1-6.208,8.6,16.308,16.308,0,0,1-5.615-.45c-1.674-.389-3.353-.786-5.05-1.045a9.576,9.576,0,0,0-10.608,6.2,14.665,14.665,0,0,0-1.014,7.984,10.289,10.289,0,0,0,8.417,8.76,12.566,12.566,0,0,0,8.864-1.276c1.664-.889,3.263-1.9,4.936-2.768a8.135,8.135,0,0,1,5.17-.866,7.028,7.028,0,0,1,5.752,6.462c.407,4.944-1.809,8.731-5.424,11.754a46.95,46.95,0,0,1-5.708,3.7c-.678.416-1.3.745-1.459,1.653-.343,1.9-.794,3.785-1.226,5.794.282-.028.631-.04.972-.1a13.548,13.548,0,0,1,4.8-.054,5.14,5.14,0,0,1,3.059,1.553c1.351,1.516.883,3.33-1.04,3.9a9.893,9.893,0,0,1-2.622.413c-2.776.044-5.553.015-8.329-.015A8.284,8.284,0,0,1,51.3,80.1a2.446,2.446,0,0,1-2.125-3.154,13.848,13.848,0,0,1,1.175-2.917A11.051,11.051,0,0,0,51.7,69.585M30.693,16.828a14.243,14.243,0,0,0-4.411,2.93c-6.685,6.269-9.971,13.917-9.051,23.132A21.379,21.379,0,0,0,23.6,56.651a28.165,28.165,0,0,0,13.082,6.927,32.286,32.286,0,0,0,15.478.532,19.449,19.449,0,0,0,10.786-6.5,6.7,6.7,0,0,0,1.745-5.382,1.826,1.826,0,0,0-2.3-1.788,7.106,7.106,0,0,0-2.151.814c-1.322.7-2.581,1.521-3.9,2.235a17.141,17.141,0,0,1-14.951.832A14.421,14.421,0,0,1,32.667,45.9a18.308,18.308,0,0,1,.915-15.629c2.8-5.359,7.214-8.262,13.419-8.218a39.056,39.056,0,0,1,7.716,1.154,12.131,12.131,0,0,0,3.776.248c1.417-.161,1.9-1.178,1.568-2.571a4.263,4.263,0,0,0-1.853-2.476,22.813,22.813,0,0,0-7.025-3.354,7.681,7.681,0,0,0-1.152-.146c-.156,1.125-.258,2.164-.457,3.183a1.47,1.47,0,0,1-1.334,1.3,2.05,2.05,0,0,1-2.073-.774,4.792,4.792,0,0,1-.576-1.365c-.233-.8-.436-1.607-.6-2.423a1.187,1.187,0,0,0-1.412-1.077c-1.988.162-3.976.319-5.959.524a16.448,16.448,0,0,0-1.937.438c.141.957.283,1.716.358,2.481.1.991.179,1.988.191,2.983a1.7,1.7,0,0,1-1.241,1.774,1.806,1.806,0,0,1-2.1-.615,12.579,12.579,0,0,1-1.226-2.154c-.354-.731-.626-1.5-.973-2.353" transform="translate(0 -7.226)" fill="#0459b7"/>
  </g>
</svg>
